<svg version="1.1" id="Layer_1" xmlns="http://www.w3.org/2000/svg" x="0" y="0" viewBox="0 0 172.2 135.7" style="enable-background:new 0 0 172.2 135.7" xml:space="preserve"><style>.st1{fill:#2426cc}</style><path d="M146.8 69.7a63.2 63.2 0 1 1-126.4 0 63.2 63.2 0 0 1 126.4 0" style="fill:#fc8c9c"/><path class="st1" d="M90.6 129.4c-.8-3 1.4-7.6 6.1-12.7 1.4-1.6 2.6-3.4 3.7-5.2 1.9-3.1 3.6-5.8 6.3-6.1 5.8-.7 7.1-6.1 8.1-10.6.3-1.4.6-2.8 1.1-4.1.7-2.1.2-3.6-.3-4.5-1.7-3.1-6.5-4-10.6-4.8l-3.3-.7-.8-.3-.1-.7c-.2-2.1-.8-4.4-4.8-6.2-9-4-14.8-4.6-18.1-1.7C74 75.2 74 79.1 74 84.5c0 5.5 4.2 8.3 7.2 10.3l1.9 1.3c1.2 1.9-1.9 12.6-3.1 16.7l-1.3 4.5a17 17 0 0 0 1.2 12.2 61.7 61.7 0 0 1-48.4-92.7c2.5 1.7 6 4.7 6.5 8 .9 5.6 6.2 11.2 11.3 16.6l4 4.3c5.2 6 9.3 8.8 12.7 8.8 1.8 0 3.3-.9 4-2.4.6-1.2 1.1-3.8-1.9-7.8-.8-1-1.1-1.8-1.3-2.4 4.4.5 12-1.8 14.8-7l.7-1.4c1.7-3.3 2.9-5.7 10.1-11.5 3.2-2.6 4.7-5.1 4.5-7.7-.3-4.2-4.7-6.8-9.4-9.6l-1.9-1.2a7.1 7.1 0 0 0-5.5-1.1c-2.7.7-4.2 3.1-5.4 5.1a11 11 0 0 1-1.1 1.6c-4.6-1.4-5.1-3.1-5-4.5 0-.5.5-1.1 1.3-1.7 2.8-2.1 8.4-3.4 11.9-2.8 5.4 1 7.3-3.8 8.2-6l.2-.6c2.1 1.5 6.3 6 8.2 10.3 1.3 2.9 3.3 3.4 4.4 3.4h.1c4.2 0 7.9-5.8 8.5-7.1.6-.7 3.9-2.1 7.3-3.1 8 5.4 14.7 12.7 19.4 21.2-1.9-.1-3.8.2-5.4 1.2-1.4.9-3 2.7-2.7 6.2.4 6.2-.1 8.8-4.3 14.6a12 12 0 0 0-1.3 11.8c1.8 4.2 5.6 7.2 10.2 7.9l1.4.2c4.1.7 7.1 1.1 8.2 1.8a61 61 0 0 1-53.6 47.5M84.9 0a67.9 67.9 0 1 0 0 135.8A67.9 67.9 0 0 0 84.9 0"/><path class="st1" d="M172.2 79.3c-57.4 0-114.8 33.3-172.2 33.3V70.9c57.4 0 114.8-33.3 172.2-33.3v41.7z"/><path d="M28 83a4 4 0 0 0-1.8-1c-.7-.2-1.6-.3-2.6-.1-.8.1-1.4.4-2.1.8-.6.4-.9.9-.9 1.6 0 .5.3.9.8 1.2l2.3.6a14.4 14.4 0 0 1 5.8 2.3c.7.6 1.2 1.3 1.6 2.1s.5 1.8.5 2.8c0 1.8-.4 3.5-1.2 4.9-.8 1.4-1.8 2.7-3.1 3.7s-2.6 1.8-4.2 2.4c-1.5.6-3 1-4.4 1.1-1.1.1-2.3.2-3.4.1L12 105c-1-.3-2-.6-3-1.1-.9-.5-1.7-1-2.4-1.6l6.4-6.4c.3.4.7.7 1.2.9.5.3.9.5 1.4.6l1.5.3h1.4c1-.1 1.7-.4 2.3-.7.6-.4.9-.9.9-1.5 0-.5-.2-.9-.7-1.2-.5-.3-1.4-.6-2.7-.9l-2.9-.8c-.9-.3-1.7-.8-2.4-1.4a6.5 6.5 0 0 1-1.6-2.1c-.4-.8-.6-1.9-.6-3.1 0-1.5.3-2.9.9-4.2a11 11 0 0 1 2.6-3.5 16.2 16.2 0 0 1 9.2-4l3.1-.2a18.2 18.2 0 0 1 5.4 1c.8.3 1.4.7 1.9 1.1A92.5 92.5 0 0 1 28 83m21.7-3.1-4.1 8.4 5-1.2-.9-7.2M52 98.4l-.7-4.2c-3.1.8-6.3 1.5-9.4 2.1l-2.4 4.9c-3.5.7-7 1.4-10.5 1.9 6-10.5 11.9-21.4 17.8-32.4l10-2.4 5.1 27.5-9.9 2.6m24.2-6.6-10.5 3-4.2-27.7 10.2-2.8L73 82h.2l8.7-20.6 10.9-3.2-16.6 33.6M89 88.2l5.1-30.3c6.3-1.8 12.6-3.6 18.9-5.2l-1.4 8.2-10 2.7-.5 2.9 9.5-2.6-1.3 7.7-9.5 2.6-.5 3.2 11.2-3.1-1.4 8.2c-6.8 1.8-13.4 3.7-20.1 5.7m34.3-9.3 5.1-30a319 319 0 0 1 9.5-1.9l-5.1 29.9a107 107 0 0 0-9.5 2m32.6-26.7-3.7 21.3-9.5 1.3 3.7-21.5-7.3 1.2 1.4-8.2a193 193 0 0 1 23.8-2.8l-1.4 8-7 .7" style="fill:#ffb500"/></svg>