<svg style="enable-background:new 0 0 512 512" viewBox="0 0 512 512" xml:space="preserve" xmlns="http://www.w3.org/2000/svg"><radialGradient cx="56.4" cy="19.2" gradientTransform="matrix(.9986 -.05234 .04449 .8488 -37 444)" gradientUnits="userSpaceOnUse" id="a" r="711.3"><stop offset="0" style="stop-color:#fed576"/><stop offset=".3" style="stop-color:#f47133"/><stop offset=".6" style="stop-color:#bc3081"/><stop offset="1" style="stop-color:#4c63d2"/></radialGradient><path d="M96 23c-16 6-30 15-44 29-13 13-22 27-28 43s-10 34-11 60-2 34-2 101l2 102c1 26 5 44 11 59 6 17 15 30 29 44 13 14 27 22 43 28s34 11 60 12l101 1 102-1c26-2 44-6 59-12a121 121 0 0 0 72-72c6-15 11-33 12-59l1-102-1-101c-2-26-6-44-12-60s-14-30-28-43c-14-14-27-22-44-29-15-6-33-10-59-11-27-1-35-2-102-2l-101 2c-26 1-44 5-60 11zm261 33c24 1 37 5 45 9 12 4 20 9 29 18 8 9 14 17 18 28 3 9 7 22 9 46l1 99c0 65 0 74-2 100-1 24-5 37-8 45a77 77 0 0 1-47 47c-8 4-21 8-45 9l-100 1-99-1c-24-1-37-5-46-9-11-4-20-10-28-18-9-9-14-17-19-29-3-8-7-21-8-45l-1-100 1-99c1-24 5-37 8-46 5-11 10-19 19-28 8-9 17-14 28-18 9-4 22-8 46-9l99-1 100 1z" style="fill:url(#a)"/><radialGradient cx="154.1" cy="134.6" gradientTransform="matrix(.9986 -.05234 .04449 .8488 -24 253)" gradientUnits="userSpaceOnUse" id="b" r="365.3"><stop offset="0" style="stop-color:#fed576"/><stop offset=".3" style="stop-color:#f47133"/><stop offset=".6" style="stop-color:#bc3081"/><stop offset="1" style="stop-color:#4c63d2"/></radialGradient><path d="M131 256a126 126 0 1 0 253 0 126 126 0 0 0-253 0zm208 0a82 82 0 1 1-164 0 82 82 0 0 1 164 0z" style="fill:url(#b)"/><circle cx="388.6" cy="125" r="29.5" style="fill:#654c9f"/></svg>