<?xml version="1.0" encoding="utf-8"?>
<!-- Generator: Adobe Illustrator 23.0.6, SVG Export Plug-In . SVG Version: 6.00 Build 0)  -->
<svg version="1.1" id="Layer_1" xmlns="http://www.w3.org/2000/svg" xmlns:xlink="http://www.w3.org/1999/xlink" x="0px" y="0px"
	 viewBox="0 0 274.7 54.7" style="enable-background:new 0 0 274.7 54.7;" xml:space="preserve">
<style type="text/css">
	.st0{fill:#001E62;}
	.st1{fill:#F80035;}
</style>
<g>
	<path class="st0" d="M269.6,34.6c0-0.2-0.1-0.5-0.1-0.7c0-0.2,0-0.5-0.1-0.7c0-0.2-0.1-0.5-0.2-0.7c0-0.2-0.1-0.4-0.1-0.6
		c0,0,0,0,0,0c-0.1-0.4-0.3-0.8-0.4-1.2c-0.2-0.4-0.4-0.8-0.6-1.3c-0.1-0.1-0.2-0.3-0.2-0.4c-0.1-0.3-0.3-0.5-0.5-0.8
		c0,0,0-0.1-0.1-0.1c-0.1-0.2-0.3-0.4-0.4-0.6c-0.1-0.1-0.2-0.2-0.2-0.3c-0.3-0.3-0.5-0.6-0.8-1c-0.1-0.1-0.2-0.2-0.3-0.3
		c-0.1-0.1-0.3-0.3-0.5-0.4c-0.1-0.1-0.2-0.2-0.3-0.2c-0.3-0.3-0.6-0.5-0.9-0.8c0,0,0,0,0,0c0,0-0.1-0.1-0.1-0.1
		c-0.3-0.2-0.6-0.4-0.9-0.6c-0.1-0.1-0.2-0.1-0.3-0.2c-0.1-0.1-0.3-0.2-0.4-0.3c-0.2-0.1-0.4-0.2-0.6-0.3l-0.4-0.2l13.5-13.1
		c0,0-2.5-2.8-4.8-4.3c-1.9-1.2-8.4-5.6-19.3-5.4c-3.1,0.1-6.2,0.6-8.9,1.5c-2.7,0.9-5,2.2-7,3.9c0,0-0.1,0.1-0.1,0.1c0,0,0,0,0,0
		c-3.8-2.1-9.1-5.2-19.6-5.2c-4.3,0-8.2,0.8-11.8,2.2l-3.4-1H141l-0.3,0.5l-1.6-0.5H97.8l-0.2,0.8l-2.3-0.7c0,0,0,0,0,0
		c-2.7-0.8-5.8-1.3-9.2-1.3c-4.4,0-8.4,0.8-12,2.3c-0.2,0.1-0.4,0.2-0.7,0.3l-4.6-1.4H44.5l-5.9,12.3L37.1,3.1l-5.4-1.7H9.5L0,51.7
		l5.4,1.7h18l0.2-1.3l4.3,1.3h13.5l0.7-1.3l4.1,1.3h18.6l0.8-4.4c4.2,3.1,11.9,5.5,20.1,5.6c4.4,0,8-0.7,11.2-2.2
		c0.8-0.3,2-1,2.9-1.8l-0.2,1.2l5.4,1.7h31.8l3.9-7h6.4l0.7,5.3l5.4,1.7l31.6,0l2.4-13c1,2.3,2.4,4.3,4.1,6c7.8,7.7,18.8,7.9,20.2,8
		c1,0.1,2,0.1,3,0.1c4.4,0,8.5-0.8,12.1-2.3c0.7-0.3,1.4-0.6,2-1c0.3-0.2,0.7-0.4,1-0.6c9.8,3.6,15.7,3.9,17.5,3.9
		c2.4,0,4.9-0.3,7.4-1c2.6-0.7,5-1.7,7.2-3.1c0.4-0.3,0.9-0.6,1.3-0.9c0.1,0,0.1-0.1,0.2-0.1c0.4-0.3,0.8-0.7,1.1-1
		c0,0,0.1-0.1,0.1-0.1c0,0,0.1-0.1,0.1-0.1c0.2-0.2,0.4-0.4,0.6-0.6c0.1-0.1,0.2-0.2,0.2-0.2c0.3-0.3,0.5-0.6,0.7-0.9c0,0,0,0,0,0
		c0,0,0,0,0,0c0.4-0.5,0.8-1,1.1-1.6c0,0,0-0.1,0.1-0.1c0-0.1,0.1-0.1,0.1-0.2c0.2-0.3,0.3-0.6,0.5-0.9c0-0.1,0.1-0.1,0.1-0.2
		c0-0.1,0.1-0.1,0.1-0.2c0.1-0.3,0.3-0.6,0.4-0.9c0-0.1,0.1-0.2,0.1-0.2c0,0,0-0.1,0-0.1c0.2-0.4,0.3-0.8,0.4-1.3c0,0,0,0,0,0
		c0,0,0-0.1,0-0.2c0.1-0.4,0.2-0.9,0.3-1.3c0-0.1,0-0.1,0-0.2c0-0.1,0-0.2,0-0.3c0-0.2,0-0.3,0.1-0.5c0-0.2,0-0.4,0.1-0.7
		c0-0.2,0-0.3,0-0.5c0-0.1,0-0.2,0-0.3c0-0.2,0-0.5,0-0.8C269.6,35.6,269.6,35.1,269.6,34.6C269.6,34.6,269.6,34.6,269.6,34.6z
		 M90,28.4c-0.4,1.3-1.1,2.4-1.8,3.4c-0.8,0.9-1.7,1.7-2.7,2.2c-0.8,0.4-1.7,0.7-2.7,0.8c0,0,0,0,0,0c-0.2-0.2-0.3-0.4-0.4-0.5
		c0-0.1-0.1-0.1-0.1-0.2c-0.1-0.1-0.2-0.3-0.2-0.4c0-0.1-0.1-0.1-0.1-0.2c-0.1-0.2-0.2-0.4-0.3-0.6c0-0.1-0.1-0.3-0.1-0.4
		c0-0.1-0.1-0.3-0.1-0.4c0-0.1,0-0.2-0.1-0.3c0-0.1,0-0.3-0.1-0.5c0-0.1,0-0.2,0-0.2c0-0.2,0-0.5,0-0.7c0-0.2,0-0.4,0-0.6
		c0-0.3,0.1-0.6,0.1-0.9c0-0.1,0-0.2,0-0.3c0.1-0.3,0.1-0.6,0.2-1c0,0,0-0.1,0-0.1c0.1-0.3,0.2-0.7,0.3-1c0.1-0.1,0.1-0.3,0.2-0.4
		c0.1-0.2,0.2-0.5,0.3-0.7c0.1-0.1,0.1-0.2,0.2-0.4c0.1-0.2,0.2-0.4,0.3-0.6c0.1-0.1,0.1-0.2,0.2-0.3c0.1-0.2,0.3-0.4,0.4-0.6
		c0.1-0.1,0.2-0.3,0.3-0.4c0.2-0.3,0.4-0.5,0.7-0.7c0.1-0.1,0.1-0.1,0.2-0.2c0.2-0.2,0.5-0.4,0.7-0.6c0.1-0.1,0.2-0.1,0.3-0.2
		c0.3-0.2,0.6-0.4,1-0.6c0.8-0.4,1.7-0.7,2.7-0.8c0,0,0,0,0,0c0.5,0.5,0.9,1.2,1.1,1.9c0.3,0.8,0.4,1.6,0.4,2.5
		C90.7,25.8,90.5,27.1,90,28.4z M218.8,28.4c-0.4,1.3-1.1,2.4-1.8,3.4c-0.8,0.9-1.7,1.7-2.7,2.2c-0.8,0.4-1.7,0.7-2.7,0.8
		c0,0,0,0,0,0c-0.2-0.2-0.3-0.4-0.4-0.5c0-0.1-0.1-0.1-0.1-0.2c-0.1-0.1-0.2-0.3-0.2-0.4c0-0.1-0.1-0.1-0.1-0.2
		c-0.1-0.2-0.2-0.4-0.3-0.6c0-0.1-0.1-0.3-0.1-0.4c0-0.1-0.1-0.3-0.1-0.4c0-0.1,0-0.2-0.1-0.3c0-0.1,0-0.3-0.1-0.5
		c0-0.1,0-0.2,0-0.2c0-0.2,0-0.5,0-0.7c0-0.2,0-0.4,0-0.6c0-0.3,0.1-0.6,0.1-0.9c0-0.1,0-0.2,0-0.3c0.1-0.3,0.1-0.7,0.2-1
		c0,0,0-0.1,0-0.1c0.1-0.3,0.2-0.7,0.3-1c0-0.1,0.1-0.3,0.2-0.4c0.1-0.2,0.2-0.5,0.3-0.7c0.1-0.1,0.1-0.2,0.2-0.4
		c0.1-0.2,0.2-0.4,0.3-0.6c0.1-0.1,0.1-0.2,0.2-0.3c0.1-0.2,0.3-0.4,0.4-0.6c0.1-0.1,0.2-0.2,0.3-0.3c0.2-0.3,0.4-0.5,0.7-0.7
		c0,0,0.1-0.1,0.2-0.1c0.2-0.2,0.5-0.4,0.7-0.6c0.1-0.1,0.2-0.1,0.3-0.2c0.3-0.2,0.6-0.4,1-0.6c0.8-0.4,1.7-0.7,2.6-0.8c0,0,0,0,0,0
		c0.5,0.5,0.9,1.2,1.1,1.9c0.3,0.8,0.4,1.6,0.4,2.5C219.4,25.8,219.2,27.1,218.8,28.4z"/>
	<g>
		<path class="st1" d="M56.4,29.8c0.1-4.1,0.8-7.9,2.3-11.5c1.5-3.6,3.5-6.7,6.1-9.4c0.2-0.2,0.4-0.4,0.7-0.6l0.9-4.7H45.8
			L33.8,28.7h-0.3L29.9,3.6H11.2l-8.6,46h13.7l4.3-26.6h0.3l3.6,26.6h10.3l13.7-26.6h0.4l-5.4,26.6h14.3l1.4-7.7
			C58.6,41,58.2,40,57.8,39C56.8,36.2,56.3,33.1,56.4,29.8z"/>
		<path class="st1" d="M97.1,18.4h-2.5l0.5-2.5l2.2-11.3c-0.5-0.2-0.9-0.4-1.4-0.6c-2.8-1-6-1.5-9.6-1.5c-4.1,0-7.8,0.7-11.2,2.1
			c-3.4,1.4-6.3,3.4-8.7,5.8c-2.4,2.5-4.3,5.4-5.6,8.7c-1.4,3.3-2.1,6.9-2.1,10.7c0,3.1,0.4,5.9,1.3,8.4c0.9,2.6,2.3,4.8,4.2,6.6
			c1.8,1.9,4.2,3.3,6.9,4.3c2.8,1,5.9,1.5,9.5,1.5c4.1,0,7.9-0.7,11.3-2.1c3.4-1.4,6.3-3.4,8.7-5.8c0.4-0.4,0.8-0.8,1.2-1.3l4.3-23
			H97.1z M92,29.1c-0.5,1.5-1.3,2.9-2.2,4c-1,1.2-2.1,2.1-3.4,2.8c-1.3,0.7-2.8,1-4.5,1c-1.4,0-2.5-0.2-3.6-0.6
			c-1-0.4-1.9-1-2.6-1.8c-0.7-0.8-1.2-1.6-1.5-2.7c-0.3-1-0.5-2.1-0.5-3.3c0-1.6,0.3-3.1,0.8-4.6c0.5-1.5,1.3-2.9,2.2-4
			c1-1.2,2.1-2.1,3.4-2.8c1.3-0.7,2.8-1.1,4.5-1.1c1.3,0,2.5,0.2,3.5,0.6c1,0.4,1.9,1,2.6,1.8c0.7,0.8,1.2,1.6,1.5,2.7
			c0.3,1,0.5,2.1,0.5,3.3C92.8,26,92.6,27.6,92,29.1z"/>
		<polygon class="st1" points="123.2,16.2 131.9,16.2 135.1,10.9 136.5,3.6 99.5,3.6 97.1,16.2 108.4,16.2 102.2,49.5 111.4,49.5 
			112.1,48.4 119.4,36.5 		"/>
		<path class="st1" d="M160.2,18.4h-5.1L158,3.6h-15.8l-28.3,46h16.4l3.8-7h14.6l0.9,7h11.2l0.1-0.4l2.1-11.5L160.2,18.4z M139.9,31
			l6.6-11.8l1.1,11.8H139.9z"/>
		<path class="st1" d="M193.5,8.9c1-1,2.1-1.9,3.2-2.8l0.5-2.5h-37l-2.4,12.7h11.4l-6.2,33.3h14.7l6.2-33.3h4.5
			C189.7,13.5,191.4,11,193.5,8.9z"/>
		<path class="st1" d="M220.1,44.2l1.7-1.6l10.2-9.5l1.6-1.5l1.5,1.8c0.2-0.6,0.4-1.2,0.6-1.8c-1.3-0.7-2.5-1.6-3.6-2.6
			c-1.2-1.2-2.2-2.6-2.9-4.2c-0.7-1.6-1-3.6-1-5.8c0-2.7,0.6-5.2,1.8-7.6c0.5-1,1.1-2,1.7-2.8c-0.1-0.1-0.2-0.2-0.3-0.3
			c-1.8-1.9-4.2-3.3-6.9-4.3c-2.8-1-5.9-1.5-9.6-1.5c-4.1,0-7.8,0.7-11.2,2.1c-3.4,1.4-6.3,3.4-8.7,5.8c-2.4,2.5-4.3,5.4-5.7,8.7
			c-1.4,3.3-2.1,6.9-2.1,10.7c0,3.1,0.4,5.9,1.3,8.4c0.9,2.6,2.3,4.8,4.2,6.6c1.9,1.9,4.2,3.3,6.9,4.3c2.8,1,5.9,1.5,9.5,1.5
			c4.1,0,7.9-0.7,11.3-2.1c1-0.4,1.9-0.9,2.8-1.4c-0.6-0.4-1.1-0.9-1.6-1.4L220.1,44.2z M215.1,35.9c-1.3,0.7-2.8,1-4.5,1
			c-1.4,0-2.5-0.2-3.6-0.6c-1-0.4-1.9-1-2.6-1.8c-0.7-0.8-1.2-1.6-1.5-2.7c-0.3-1-0.5-2.1-0.5-3.3c0-1.6,0.3-3.1,0.8-4.6
			c0.5-1.5,1.3-2.9,2.2-4c0.9-1.2,2.1-2.1,3.4-2.8c1.3-0.7,2.8-1.1,4.5-1.1c1.3,0,2.5,0.2,3.5,0.6c1,0.4,1.9,1,2.6,1.8
			c0.7,0.8,1.2,1.6,1.5,2.7c0.3,1,0.5,2.1,0.5,3.3c0,1.6-0.3,3.2-0.8,4.7c-0.5,1.5-1.3,2.9-2.2,4C217.6,34.3,216.4,35.2,215.1,35.9z
			"/>
		<path class="st1" d="M259,26.1c-1-1.1-2.3-2-3.8-2.9c-1.5-0.8-3.2-1.6-5.1-2.2c-1.6-0.5-2.7-1-3.5-1.5c-0.8-0.5-1.2-1.1-1.2-2
			c0-1.1,0.5-1.9,1.5-2.4c1-0.5,2-0.8,3.2-0.8c1.5,0,2.8,0.3,4,0.8c1.1,0.5,2.1,1.2,2.8,2.1l9.5-9.3c-0.8-0.9-1.8-1.6-2.9-2.3
			c-1.2-0.7-2.5-1.3-3.8-1.8c-1.4-0.5-2.9-0.9-4.4-1.2c-1.6-0.3-3.1-0.4-4.7-0.4c-2.9,0-5.6,0.4-8,1.3c-2.4,0.8-4.6,2-6.3,3.5
			c-1.8,1.5-3.2,3.3-4.1,5.3c-1,2-1.5,4.2-1.5,6.6c0,1.9,0.2,3.6,0.8,5c0.6,1.4,1.4,2.5,2.4,3.5s2.2,1.8,3.6,2.5
			c1.4,0.7,2.9,1.3,4.5,1.8c2,0.6,3.4,1.3,4.1,1.9c0.7,0.6,1.1,1.3,1.1,2.1c0,1-0.5,1.7-1.4,2.2c-0.9,0.5-2.1,0.7-3.6,0.7
			c-0.7,0-1.4-0.1-2.2-0.3c-0.8-0.2-1.6-0.5-2.4-0.8c-0.8-0.3-1.5-0.7-2.2-1.2c-0.7-0.5-1.3-1-1.8-1.6l-10.2,9.5c1,1,2.3,2,3.7,2.8
			c1.4,0.8,2.9,1.5,4.6,2.1c1.6,0.6,3.3,1,5.1,1.3c1.8,0.3,3.5,0.5,5.3,0.5c2.2,0,4.5-0.3,6.9-0.9c2.4-0.6,4.5-1.6,6.5-2.9
			c2-1.3,3.6-3,4.9-5.1c1.3-2.1,2-4.6,2-7.5c0-1.7-0.2-3.3-0.8-4.7C260.8,28.4,260,27.2,259,26.1z"/>
	</g>
</g>
</svg>
