<?xml version="1.0" encoding="utf-8"?>
<!-- Generator: Adobe Illustrator 23.0.6, SVG Export Plug-In . SVG Version: 6.00 Build 0)  -->
<svg version="1.1" id="Layer_1" xmlns="http://www.w3.org/2000/svg" xmlns:xlink="http://www.w3.org/1999/xlink" x="0px" y="0px"
	 viewBox="0 0 274.66 54.65" style="enable-background:new 0 0 274.66 54.65;" xml:space="preserve">
<style type="text/css">
	.st0{fill:#FFFFFF;}
</style>
<g>
	<polygon class="st0" points="139.88,31.02 147.61,31.02 146.47,19.2 	"/>
	<path class="st0" d="M90.83,18.46c-0.68-0.76-1.54-1.35-2.57-1.79c-1.03-0.44-2.2-0.65-3.51-0.65c-1.65,0-3.15,0.36-4.49,1.07
		c-1.34,0.71-2.49,1.65-3.44,2.82c-0.95,1.17-1.68,2.51-2.22,4.02c-0.53,1.52-0.81,3.05-0.83,4.61c-0.02,1.16,0.14,2.26,0.49,3.28
		c0.34,1.01,0.86,1.9,1.54,2.66c0.69,0.76,1.55,1.36,2.57,1.79c1.03,0.44,2.22,0.65,3.57,0.65c1.65,0,3.14-0.34,4.45-1.04
		c1.33-0.69,2.46-1.62,3.41-2.79c0.95-1.17,1.68-2.51,2.22-4.03c0.53-1.51,0.81-3.07,0.84-4.67c0.02-1.16-0.14-2.26-0.49-3.28
		C92.02,20.11,91.51,19.22,90.83,18.46z M90.03,28.37c-0.45,1.26-1.07,2.39-1.85,3.35c-0.76,0.95-1.66,1.68-2.73,2.24
		c-0.81,0.43-1.7,0.67-2.68,0.76c-0.02-0.02-0.03-0.03-0.05-0.05c-0.16-0.17-0.29-0.35-0.42-0.54c-0.04-0.06-0.07-0.11-0.11-0.17
		c-0.08-0.13-0.16-0.26-0.23-0.4c-0.03-0.06-0.06-0.12-0.09-0.18c-0.09-0.2-0.18-0.4-0.25-0.62c-0.05-0.14-0.09-0.29-0.13-0.44
		c-0.03-0.13-0.06-0.27-0.09-0.4c-0.02-0.09-0.04-0.18-0.05-0.26c-0.02-0.15-0.04-0.3-0.06-0.45c-0.01-0.08-0.02-0.16-0.03-0.24
		c-0.02-0.24-0.03-0.48-0.02-0.73c0-0.21,0.02-0.41,0.04-0.62c0.02-0.29,0.05-0.58,0.09-0.86c0.02-0.11,0.03-0.22,0.05-0.34
		c0.05-0.32,0.12-0.64,0.2-0.96c0.01-0.05,0.02-0.09,0.03-0.14c0.09-0.33,0.19-0.66,0.3-0.99c0.05-0.14,0.11-0.28,0.17-0.42
		c0.09-0.23,0.18-0.46,0.28-0.68c0.06-0.12,0.12-0.24,0.18-0.36c0.1-0.2,0.2-0.39,0.31-0.58c0.07-0.12,0.14-0.23,0.21-0.34
		c0.13-0.21,0.27-0.41,0.41-0.6c0.1-0.13,0.19-0.26,0.29-0.39c0.21-0.26,0.43-0.5,0.66-0.73c0.06-0.06,0.12-0.1,0.17-0.16
		c0.22-0.21,0.46-0.41,0.71-0.6c0.08-0.06,0.17-0.13,0.25-0.19c0.31-0.22,0.63-0.42,0.97-0.61c0.81-0.43,1.69-0.68,2.65-0.78
		c0.01,0.01,0.03,0.03,0.04,0.04c0.49,0.55,0.85,1.17,1.11,1.92c0.26,0.77,0.39,1.62,0.37,2.53C90.72,25.75,90.48,27.09,90.03,28.37
		z"/>
	<path class="st0" d="M269.59,34.55c-0.02-0.23-0.06-0.46-0.09-0.68c-0.03-0.23-0.05-0.46-0.08-0.68c-0.04-0.24-0.1-0.47-0.15-0.7
		c-0.05-0.21-0.09-0.43-0.14-0.64c0-0.01-0.01-0.03-0.01-0.04c-0.12-0.41-0.25-0.81-0.41-1.2c-0.17-0.43-0.36-0.84-0.57-1.25
		c-0.07-0.13-0.15-0.26-0.23-0.39c-0.15-0.27-0.3-0.53-0.47-0.79c-0.02-0.03-0.04-0.06-0.06-0.1c-0.13-0.2-0.28-0.39-0.42-0.58
		c-0.08-0.11-0.16-0.22-0.24-0.33c-0.26-0.33-0.53-0.65-0.83-0.95c-0.09-0.1-0.19-0.19-0.28-0.29c-0.15-0.15-0.31-0.28-0.46-0.43
		c-0.09-0.08-0.17-0.16-0.26-0.24c-0.3-0.26-0.6-0.51-0.93-0.76c-0.01-0.01-0.02-0.01-0.03-0.02c-0.04-0.03-0.09-0.06-0.13-0.09
		c-0.29-0.21-0.59-0.42-0.89-0.62c-0.11-0.07-0.23-0.14-0.34-0.22c-0.13-0.08-0.26-0.17-0.4-0.25c-0.19-0.12-0.39-0.23-0.59-0.34
		l-0.41-0.21l13.49-13.06c0,0-2.47-2.79-4.84-4.28c-1.93-1.22-8.4-5.6-19.28-5.42c-3.14,0.05-6.2,0.56-8.86,1.47
		c-2.68,0.92-5.04,2.24-7.01,3.89c-0.04,0.03-0.07,0.07-0.11,0.1c-0.01,0-0.01-0.01-0.02-0.01c-3.75-2.06-9.09-5.19-19.61-5.23
		c-4.27-0.01-8.24,0.75-11.81,2.22l-3.37-1.05H141l-0.3,0.49l-1.59-0.49H97.78L97.63,2.2l-2.29-0.71c0,0,0.01,0,0.01,0
		c-2.7-0.84-5.77-1.27-9.15-1.27c-4.36,0-8.41,0.78-12.04,2.31c-0.23,0.1-0.44,0.2-0.66,0.3l-4.63-1.44H44.53l-5.91,12.34
		l-1.5-10.68l-5.36-1.67H9.47L0,51.69l5.36,1.67h18.05l0.22-1.34l4.32,1.34H41.4l0.65-1.28l4.11,1.28h18.61l0.83-4.43
		c4.19,3.08,11.9,5.54,20.14,5.6c4.4,0.03,7.96-0.75,11.21-2.19c0.78-0.35,1.96-1.01,2.92-1.84l-0.19,1.19l5.36,1.67h31.76
		l3.86-7.01H147l0.69,5.35l5.36,1.67l31.62,0l2.43-12.99c1.01,2.28,2.37,4.33,4.11,6.04c7.81,7.67,18.84,7.86,20.21,7.98
		c0.99,0.08,1.99,0.14,3.04,0.14c4.41,0,8.47-0.78,12.11-2.31c0.7-0.3,1.38-0.61,2.04-0.95c0.34-0.17,0.66-0.37,1-0.56
		c9.78,3.63,15.66,3.95,17.54,3.95c2.4,0,4.9-0.33,7.43-0.98c2.58-0.66,4.99-1.72,7.16-3.14c0.45-0.3,0.88-0.62,1.3-0.95
		c0.06-0.05,0.12-0.09,0.18-0.14c0.4-0.32,0.78-0.66,1.15-1.02c0.03-0.03,0.07-0.06,0.11-0.1c0.05-0.04,0.09-0.09,0.13-0.14
		c0.2-0.2,0.39-0.4,0.58-0.61c0.07-0.08,0.15-0.16,0.22-0.24c0.26-0.29,0.51-0.59,0.75-0.9c0.01-0.01,0.01-0.01,0.02-0.02
		c0.01-0.01,0.02-0.03,0.03-0.05c0.39-0.51,0.76-1.03,1.1-1.58c0.02-0.03,0.04-0.07,0.06-0.1c0.03-0.05,0.06-0.11,0.09-0.17
		c0.18-0.3,0.35-0.61,0.5-0.92c0.03-0.05,0.06-0.11,0.09-0.16c0.03-0.07,0.06-0.14,0.09-0.21c0.13-0.28,0.25-0.57,0.37-0.87
		c0.03-0.08,0.07-0.15,0.1-0.23c0.01-0.04,0.02-0.07,0.03-0.11c0.15-0.42,0.29-0.85,0.4-1.29c0-0.02,0.01-0.03,0.02-0.05
		c0.01-0.05,0.02-0.1,0.03-0.15c0.11-0.43,0.2-0.87,0.28-1.32c0.01-0.07,0.03-0.14,0.04-0.21c0.01-0.08,0.02-0.17,0.03-0.25
		c0.02-0.15,0.04-0.31,0.06-0.46c0.03-0.22,0.05-0.44,0.07-0.67c0.01-0.16,0.03-0.32,0.04-0.48c0.01-0.09,0.02-0.17,0.02-0.26
		c0.01-0.25,0.02-0.5,0.02-0.76c0.01-0.52-0.01-1.03-0.05-1.52C269.59,34.58,269.59,34.57,269.59,34.55z M57.66,49.52H43.4
		l5.43-26.62h-0.38L34.77,49.52H24.43l-3.57-26.62h-0.32l-4.28,26.62H2.56l8.65-45.97h18.71l3.53,25.19h0.32L45.83,3.56h20.48
		l-0.88,4.65c-0.22,0.21-0.44,0.43-0.66,0.65c-2.59,2.66-4.66,5.82-6.12,9.41c-1.46,3.57-2.23,7.45-2.3,11.52
		c-0.05,3.33,0.44,6.44,1.45,9.23c0.36,1,0.79,1.95,1.29,2.86L57.66,49.52z M100.41,42.71c-2.43,2.46-5.33,4.41-8.72,5.84
		c-3.38,1.42-7.14,2.14-11.28,2.14c-3.59,0-6.77-0.51-9.52-1.52c-2.75-1.02-5.05-2.46-6.9-4.32c-1.86-1.86-3.24-4.06-4.17-6.62
		c-0.94-2.55-1.38-5.37-1.33-8.44c0.06-3.8,0.77-7.38,2.14-10.71c1.36-3.33,3.24-6.23,5.65-8.7c2.41-2.46,5.3-4.41,8.69-5.84
		c3.38-1.42,7.13-2.14,11.22-2.14c3.64,0,6.83,0.51,9.59,1.52c0.49,0.18,0.97,0.38,1.44,0.59l-2.16,11.33l-0.49,2.55h2.53h8.82
		l-4.31,23.04C101.21,41.86,100.81,42.29,100.41,42.71z M111.36,49.52h-9.15l6.23-33.3H97.1l2.41-12.66h37.03l-1.41,7.36l-3.27,5.31
		h-8.72l-3.8,20.32l-7.3,11.85L111.36,49.52z M160.7,49.52h-11.16l-0.91-7.01h-14.58l-3.85,7.01h-16.36l28.31-45.97h15.83
		l-2.82,14.83h5.07l2.68,19.28l-2.15,11.48L160.7,49.52z M183.79,16.22l-6.23,33.3h-14.71l6.23-33.3h-11.35l2.42-12.66h37.03
		l-0.48,2.5c-1.14,0.85-2.21,1.79-3.2,2.8c-2.09,2.14-3.83,4.61-5.19,7.36H183.79z M220.42,48.55c-3.38,1.42-7.14,2.14-11.29,2.14
		c-3.59,0-6.77-0.51-9.52-1.52c-2.75-1.02-5.05-2.46-6.91-4.32c-1.85-1.86-3.24-4.06-4.17-6.62c-0.93-2.55-1.37-5.37-1.32-8.44
		c0.06-3.8,0.77-7.38,2.13-10.71c1.37-3.33,3.25-6.23,5.65-8.7c2.41-2.46,5.3-4.41,8.68-5.84c3.39-1.42,7.13-2.14,11.23-2.14
		c3.64,0,6.83,0.51,9.58,1.52c2.75,1.02,5.06,2.46,6.91,4.32c0.1,0.1,0.2,0.2,0.29,0.3c-0.66,0.89-1.23,1.84-1.72,2.85
		c-1.12,2.32-1.71,4.86-1.76,7.55c-0.04,2.25,0.3,4.21,0.98,5.85c0.68,1.63,1.65,3.05,2.88,4.22c1.02,0.98,2.22,1.84,3.57,2.56
		c-0.19,0.62-0.39,1.23-0.62,1.83l-1.48-1.81l-1.64,1.53l-10.17,9.48l-1.68,1.56l1.59,1.59c0.49,0.49,1.02,0.96,1.59,1.41
		C222.34,47.67,221.4,48.13,220.42,48.55z M260.15,41.99c-1.3,2.08-2.94,3.76-4.91,5.06c-1.98,1.3-4.16,2.25-6.52,2.85
		c-2.37,0.61-4.67,0.91-6.92,0.91c-1.78,0-3.55-0.15-5.32-0.45c-1.77-0.3-3.47-0.73-5.08-1.29c-1.62-0.57-3.14-1.25-4.56-2.08
		c-1.42-0.82-2.66-1.75-3.7-2.79l10.17-9.48c0.5,0.61,1.1,1.15,1.82,1.62c0.71,0.47,1.45,0.88,2.23,1.2
		c0.78,0.32,1.57,0.58,2.37,0.78c0.8,0.2,1.54,0.29,2.21,0.29c1.48,0,2.67-0.25,3.56-0.75c0.9-0.5,1.35-1.22,1.37-2.18
		c0.01-0.78-0.35-1.47-1.08-2.07c-0.73-0.61-2.1-1.23-4.12-1.88c-1.6-0.52-3.1-1.12-4.5-1.82c-1.4-0.69-2.62-1.52-3.64-2.5
		c-1.02-0.97-1.82-2.14-2.39-3.5c-0.57-1.36-0.84-3.02-0.81-4.97c0.04-2.38,0.55-4.58,1.53-6.62c0.98-2.03,2.36-3.8,4.14-5.29
		c1.78-1.49,3.89-2.66,6.33-3.51c2.44-0.84,5.12-1.26,8.04-1.26c1.6,0,3.18,0.14,4.75,0.42c1.56,0.28,3.03,0.67,4.42,1.16
		c1.38,0.5,2.67,1.1,3.84,1.79c1.17,0.7,2.15,1.47,2.94,2.34l-9.53,9.28c-0.7-0.86-1.63-1.57-2.75-2.11
		c-1.13-0.54-2.46-0.81-3.98-0.81c-1.19,0-2.26,0.26-3.22,0.78c-0.96,0.52-1.44,1.32-1.46,2.4c-0.01,0.86,0.37,1.53,1.17,2.01
		c0.79,0.48,1.96,0.97,3.51,1.49c1.93,0.65,3.64,1.38,5.15,2.21c1.5,0.82,2.77,1.77,3.81,2.85c1.03,1.09,1.82,2.31,2.37,3.7
		c0.54,1.38,0.8,2.94,0.78,4.67C262.12,37.4,261.45,39.91,260.15,41.99z"/>
	<path class="st0" d="M221.59,24.4c0.02-1.16-0.15-2.26-0.49-3.28c-0.35-1.01-0.86-1.9-1.55-2.66c-0.69-0.76-1.54-1.35-2.57-1.79
		c-1.03-0.44-2.2-0.65-3.51-0.65c-1.64,0-3.14,0.36-4.49,1.07c-1.34,0.71-2.49,1.65-3.43,2.82c-0.95,1.17-1.69,2.51-2.22,4.02
		c-0.53,1.52-0.81,3.05-0.83,4.61c-0.02,1.16,0.15,2.26,0.49,3.28c0.35,1.01,0.86,1.9,1.55,2.66c0.69,0.76,1.54,1.36,2.57,1.79
		c1.03,0.44,2.22,0.65,3.57,0.65c1.65,0,3.14-0.34,4.45-1.04c1.32-0.69,2.46-1.62,3.4-2.79c0.95-1.17,1.69-2.51,2.22-4.03
		C221.29,27.56,221.56,26,221.59,24.4z M218.77,28.37c-0.45,1.26-1.07,2.39-1.85,3.35c-0.76,0.93-1.67,1.68-2.73,2.24
		c-0.81,0.43-1.7,0.67-2.68,0.76c-0.02-0.02-0.03-0.03-0.05-0.05c-0.16-0.17-0.29-0.35-0.42-0.54c-0.04-0.06-0.07-0.11-0.11-0.17
		c-0.08-0.13-0.16-0.26-0.23-0.4c-0.03-0.06-0.06-0.12-0.09-0.18c-0.09-0.2-0.18-0.4-0.25-0.62c-0.05-0.14-0.09-0.29-0.13-0.44
		c-0.03-0.13-0.06-0.27-0.09-0.41c-0.02-0.09-0.04-0.18-0.05-0.26c-0.02-0.15-0.04-0.3-0.06-0.45c-0.01-0.08-0.02-0.16-0.03-0.24
		c-0.02-0.24-0.03-0.48-0.02-0.73c0-0.21,0.02-0.41,0.04-0.62c0.02-0.29,0.05-0.58,0.09-0.86c0.02-0.11,0.03-0.22,0.05-0.34
		c0.06-0.33,0.13-0.66,0.21-0.99c0.01-0.04,0.02-0.08,0.03-0.12c0.09-0.33,0.19-0.66,0.3-0.98c0.05-0.13,0.1-0.26,0.16-0.39
		c0.09-0.24,0.19-0.47,0.29-0.7c0.06-0.12,0.12-0.24,0.18-0.36c0.1-0.2,0.21-0.4,0.32-0.59c0.07-0.11,0.13-0.22,0.2-0.33
		c0.14-0.22,0.28-0.43,0.43-0.63c0.09-0.12,0.17-0.24,0.26-0.35c0.2-0.25,0.42-0.49,0.65-0.71c0.05-0.05,0.1-0.09,0.15-0.14
		c0.23-0.22,0.48-0.43,0.73-0.62c0.08-0.06,0.17-0.13,0.25-0.19c0.31-0.22,0.64-0.43,0.98-0.61c0.81-0.43,1.69-0.68,2.65-0.78
		c0.01,0.01,0.03,0.03,0.04,0.04c0.49,0.55,0.85,1.17,1.1,1.92c0.27,0.77,0.39,1.63,0.37,2.53
		C219.45,25.75,219.21,27.09,218.77,28.37z"/>
</g>
</svg>
