<svg width="80" height="32" fill="none" xmlns="http://www.w3.org/2000/svg">
  <g clip-path="url(#a)" fill="#001E62">
    <path d="m73.9 31.8.2-1.3h-4.3l.4-2.4H74l.2-1.3h-3.7l.4-2.2h3.9l.2-1.3h-5.4l-1.5 8.5h5.8Zm-10.7-4.9.4-2.4h1.1l1.2.2c.3.2.4.4.4.9s-.2.8-.5 1c-.4.2-.9.3-1.5.3h-1.1Zm2.4 1.1c.7-.2 1.2-.4 1.6-.9.4-.4.6-1 .6-1.7a2 2 0 0 0-.8-1.6c-.5-.4-1.2-.6-2.2-.6h-2.5l-1.5 8.5h1.5l.6-3.6H64l1.6 3.6h1.7L65.6 28Zm-11.1 2.5-.8-.5-.5-.8-.2-1 .2-1.4c.2-.5.4-.9.7-1.2.3-.4.6-.6 1.1-.9a3.2 3.2 0 0 1 2.5-.1l.8.5.5.8.2 1-.2 1.4c-.1.5-.4.9-.6 1.2l-1 .9c-.4.2-.9.3-1.4.3l-1.3-.2Zm0-7a9 9 0 0 0-1.6 1.1c-.4.5-.8 1-1 1.7-.3.6-.4 1.3-.4 2 0 .6.1 1.1.3 1.5.2.5.5.8.8 1.2.4.3.8.6 1.3.7.5.2 1.1.3 1.7.3a4.5 4.5 0 0 0 3.5-1.5c.4-.5.8-1 1-1.7.2-.6.4-1.3.4-2 0-.6-.1-1.1-.3-1.5-.2-.5-.5-.8-.8-1.2-.4-.3-.8-.6-1.3-.7-.5-.2-1-.3-1.7-.3-.6-.1-1.3.1-1.9.4ZM52 24.6l.2-1.3h-6.5l-.2 1.3H48l-1.3 7.2h1.5l1.3-7.2H52Zm-7-.4-.5-.5-.6-.3-.7-.2-.7-.1a5 5 0 0 0-1.2.2l-1 .5-.7.8a2 2 0 0 0-.3 1.1l.2.9.4.6.6.4.7.3.6.2.5.3c.1.1.3.2.3.4l.1.5-.2.6-.4.4-.5.2-.6.1a2 2 0 0 1-1.1-.3c-.3-.2-.6-.4-.7-.7l-1.2.8.6.6.7.4.8.3.8.1 1.2-.2 1.1-.5.8-.8c.2-.3.3-.8.3-1.3 0-.7-.2-1.2-.6-1.5-.4-.4-1-.7-1.7-1-.4-.1-.6-.3-.9-.5a1 1 0 0 1-.3-.7l.2-.6.4-.4.5-.2.5-.1.8.2c.3.1.5.3.6.6l1.2-.6Zm-15.9.3h1.3l1.2.2.9.5.5.8.2 1-.2 1.3-.7 1.1-1.1.8c-.4.2-1 .3-1.6.3H28l1.1-6Zm-2.7 7.3h3.2c.7 0 1.4-.1 2.1-.4.6-.2 1.2-.6 1.6-1 .5-.4.8-1 1.1-1.6.3-.6.4-1.3.4-2 0-.6-.1-1.2-.3-1.6-.2-.5-.5-.8-.9-1.1-.4-.3-.8-.5-1.3-.6l-1.4-.2H28l-1.6 8.5Zm-6.6-1.3L19 30l-.5-.8a3 3 0 0 1-.2-1l.2-1.4c.2-.5.4-.9.7-1.2.3-.4.6-.6 1.1-.9a3.2 3.2 0 0 1 2.5-.1l.8.5.5.8.2 1-.2 1.4c-.1.5-.4.9-.7 1.2l-1 .9c-.4.2-.9.3-1.4.3l-1.2-.2Zm0-7a9 9 0 0 0-1.6 1.1c-.4.5-.8 1-1 1.7-.3.6-.4 1.3-.4 2 0 .6.1 1.1.3 1.5.2.5.5.8.8 1.2.4.3.8.6 1.3.7.5.2 1.1.3 1.7.3.7 0 1.4-.1 1.9-.4.6-.3 1.1-.7 1.5-1.1.4-.5.8-1 1-1.7.2-.6.4-1.3.4-2 0-.6-.1-1.1-.3-1.5-.2-.5-.5-.8-.8-1.2-.4-.3-.8-.6-1.3-.7-.5-.2-1-.3-1.7-.3-.5-.1-1.2.1-1.8.4Zm-9.8 7-.8-.5-.5-.8-.2-1 .2-1.4c.2-.5.4-.9.7-1.2.3-.4.6-.6 1.1-.9a3.2 3.2 0 0 1 2.5-.1l.8.5.5.8.2 1-.2 1.4c-.1.5-.4.9-.7 1.2l-1 .9c-.4.2-.9.3-1.4.3l-1.2-.2Zm0-7a9 9 0 0 0-1.6 1.1c-.4.5-.8 1-1 1.7-.3.6-.4 1.3-.4 2 0 .6.1 1.1.3 1.5.2.5.5.8.8 1.2.4.3.8.6 1.3.7.5.2 1.1.3 1.7.3.7 0 1.4-.1 1.9-.4.6-.3 1.1-.7 1.5-1.1.4-.5.8-1 1-1.7.2-.6.4-1.3.4-2 0-.6-.1-1.1-.3-1.5-.2-.5-.5-.8-.8-1.2-.4-.3-.8-.6-1.3-.7-.5-.2-1-.3-1.7-.3a3 3 0 0 0-1.8.4Zm-3.5 1.1.2-1.3H1.5L0 31.8h1.5l.6-3.6h3.6l.2-1.3H2.3l.4-2.4h3.8v.1ZM50.5 12.9l.2-1.3h-5.3l-1.5 8.5h1.5l.6-3.6h3.6l.2-1.3h-3.6l.4-2.4h3.9v.1Zm-12.9 6-.8-.5-.5-.8-.2-1 .2-1.4c.2-.5.4-.9.7-1.2.3-.4.6-.6 1.1-.9a3.2 3.2 0 0 1 2.5-.1l.8.5.5.8.2 1-.2 1.4c-.1.5-.4.9-.6 1.2l-1 .9a4 4 0 0 1-2.7.1Zm0-7.1c-.6.3-1.1.7-1.6 1.2-.4.5-.8 1-1 1.7-.3.6-.4 1.3-.4 2 0 .6.1 1.1.3 1.5.2.5.5.8.8 1.2.4.3.8.6 1.3.7.5.2 1.1.3 1.7.3.7 0 1.4-.1 1.9-.4.6-.3 1.1-.7 1.5-1.1.4-.5.8-1 1-1.7.2-.6.4-1.3.4-2 0-.6-.1-1.1-.3-1.5-.2-.5-.5-.8-.8-1.2-.4-.3-.8-.6-1.3-.7-.5-.2-1-.3-1.7-.3-.6-.1-1.2.1-1.8.3Zm-12.7 1.1h1.3l1.2.2.9.5.5.8.2 1-.2 1.3-.7 1.1-1.1.8c-.4.2-1 .3-1.6.3h-1.6l1.1-6Zm-2.7 7.3h3.2c.7 0 1.4-.1 2.1-.4.6-.2 1.2-.6 1.6-1 .5-.4.8-1 1.1-1.6.3-.6.4-1.3.4-2 0-.6-.1-1.2-.3-1.6-.2-.5-.5-.8-.9-1.1-.4-.3-.8-.5-1.3-.6l-1.4-.2h-2.9l-1.6 8.5Zm-1.7 0 1.5-8.5h-1.5L19.4 18l-2.7-6.4h-1.9l-1.5 8.5h1.5l1.2-6.6 2.8 6.6h1.7v.1Zm-9.3 0 1.5-8.5h-1.5l-1.5 8.5h1.5Zm-2.2 0-3.3-4.5 4.4-4h-2l-3.8 3.8.7-3.8H3.4l-1.5 8.5h1.5l.7-4.3L7 20.2h2ZM79.4 1.3l.2-1.3h-6.5l-.2 1.3h2.5l-1.3 7.2h1.5l1.3-7.2h2.5Zm-8.8 7.2L72.1 0h-1.5l-1.1 6.4L66.7 0h-1.9l-1.5 8.5h1.5L66 1.9l2.8 6.6h1.8Zm-8.7 0 .2-1.3h-4.3l.4-2.4h3.7l.2-1.3h-3.7l.4-2.2h3.9l.4-1.3h-5.4l-1.5 8.5h5.7ZM51.1 3.7l.4-2.4h1.1l1.2.2c.3.2.4.4.4.9s-.2.8-.5 1c-.4.2-.9.3-1.5.3h-1.1Zm2.5 1c.7-.2 1.2-.4 1.6-.9.4-.4.6-1 .6-1.7A2 2 0 0 0 55 .5a4 4 0 0 0-2.1-.5h-2.5l-1.5 8.5h1.5l.6-3.6h1.1l1.6 3.6h1.7l-1.8-3.8Zm-6.1 3.8.2-1.3h-4.3l.4-2.4h3.7l.2-1.3H44l.4-2.2h3.9l.4-1.3h-5.4l-1.5 8.5h5.7Zm-5.8-7.2.2-1.3h-5.3l-1.5 8.5h1.5l.6-3.6h3.6l.2-1.2h-3.6l.4-2.4h3.9Zm-6.7 0 .2-1.3h-5.3l-1.5 8.5h1.5l.6-3.6h3.6l.2-1.3h-3.6l.4-2.4H35v.1Zm-8.6 7.2L27.9 0h-1.5l-1.5 8.5h1.5Zm-7.8-7.2h1.3l1.2.2c.4.1.7.3.9.5l.5.8.2 1-.2 1.3-.7 1.1-1.1.8c-.4.2-1 .3-1.6.3h-1.6l1.1-6Zm-2.8 7.2H19c.7 0 1.4-.1 2.1-.4.6-.2 1.2-.6 1.6-1 .5-.4.8-1 1.1-1.6.3-.6.4-1.3.4-2 0-.6-.1-1.2-.3-1.6-.2-.5-.5-.8-.9-1.1-.4-.3-.8-.5-1.3-.6L20.3 0h-2.9l-1.6 8.5ZM10 5.3H7.3l2.2-3.6.5 3.6Zm2.2 3.2L10.5 0H9.2L3.6 8.5h1.8l1.2-2h3.6l.3 2h1.7Z" />
  </g>
  <defs>
    <clipPath id="a">
      <path fill="#fff" d="M0 0h79.6v32H0z" />
    </clipPath>
  </defs>
</svg>
